<svg xmlns="http://www.w3.org/2000/svg" width="800" height="347" viewBox="0 0 800 347">
  <metadata><?xpacket begin="﻿" id="W5M0MpCehiHzreSzNTczkc9d"?>
<x:xmpmeta xmlns:x="adobe:ns:meta/" x:xmptk="Adobe XMP Core 5.6-c138 79.159824, 2016/09/14-01:09:01        ">
   <rdf:RDF xmlns:rdf="http://www.w3.org/1999/02/22-rdf-syntax-ns#">
      <rdf:Description rdf:about=""/>
   </rdf:RDF>
</x:xmpmeta>
                                                                                                    
                                                                                                    
                                                                                                    
                                                                                                    
                                                                                                    
                                                                                                    
                                                                                                    
                                                                                                    
                                                                                                    
                                                                                                    
                                                                                                    
                                                                                                    
                                                                                                    
                                                                                                    
                                                                                                    
                                                                                                    
                                                                                                    
                                                                                                    
                                                                                                    
                                                                                                    
                           
<?xpacket end="w"?></metadata>
<defs>
    <style>
      .cls-1 {
        fill: #fff;
      }

      .cls-1, .cls-2 {
        fill-rule: evenodd;
      }

      .cls-2 {
        fill: #970606;
      }
    </style>
  </defs>
  <path id="Dinner_" data-name="Dinner " class="cls-1" d="M70.314,22.345A32.495,32.495,0,0,0,63.564,11.34,33.453,33.453,0,0,0,52.313,3.53,38.989,38.989,0,0,0,36.561.572H0.32V6.488a5.139,5.139,0,0,1,3.079,0A4.693,4.693,0,0,1,5.531,8.5a9.583,9.583,0,0,1,.947,4.852V156.775a8.878,8.878,0,0,1-.947,4.733A4.788,4.788,0,0,1,3.4,163.4a5.082,5.082,0,0,1-3.079,0v6.153H24.362q3.2,0,5.8-.118c1.736-.082,3.2-0.118,4.382-0.118h2.013a38.922,38.922,0,0,0,15.752-2.959,33.344,33.344,0,0,0,11.251-7.81,32.43,32.43,0,0,0,6.751-11.005A36.291,36.291,0,0,0,72.565,135V34.889A36.3,36.3,0,0,0,70.314,22.345ZM30.639,6.725q2.842,0,6.514.355a23.93,23.93,0,0,1,7.224,1.893,21.087,21.087,0,0,1,6.514,4.5A19.935,19.935,0,0,1,55.51,21.4a29.239,29.239,0,0,1,1.184,8.284V139.971q-0.239,9.469-4.027,14.911a17.81,17.81,0,0,1-7.343,5.8,30.972,30.972,0,0,1-8.29,2.248H22.823V6.725h7.817Zm78.874,13.964a10.46,10.46,0,0,0-7.342-2.84,9.711,9.711,0,0,0-9.949,9.94,10.324,10.324,0,0,0,2.842,7.455,9.439,9.439,0,0,0,7.106,2.958,10.222,10.222,0,0,0,7.342-2.958,9.906,9.906,0,0,0,3.08-7.455A9.264,9.264,0,0,0,109.513,20.689Zm0.948,33.134h-22.5V59.74a5.139,5.139,0,0,1,3.079,0,4.692,4.692,0,0,1,2.132,2.012,8.992,8.992,0,0,1,.947,4.615v90.172a9.562,9.562,0,0,1-.947,4.852,3.431,3.431,0,0,1-2.132,1.775,3.514,3.514,0,0,1-3.079,0v6.154h28.424v-6.154a3.008,3.008,0,0,1-2.843,0,3.415,3.415,0,0,1-2.132-1.775,9.533,9.533,0,0,1-.947-4.852V53.823Zm63.95-1.893a25.509,25.509,0,0,0-3.553.237,25.166,25.166,0,0,0-3.316.71,0.21,0.21,0,0,0-.237.237h-0.473a23.548,23.548,0,0,0-8.764,5.207,7.991,7.991,0,0,0-1.9,2.13c-0.474.791-1.029,1.657-1.658,2.6v-9.23h-22.5v5.444h1.658a5.771,5.771,0,0,1,2.961,1.183q1.776,1.187,1.777,5.68v90.408q0,4.737-1.777,5.8a6.149,6.149,0,0,1-2.961,1.065h-1.184a0.673,0.673,0,0,1-.474-0.237v6.154h28.424v-6.154a0.684,0.684,0,0,1-.473.237h-0.948a5.236,5.236,0,0,1-2.961-1.065q-1.543-1.065-1.539-5.8V82.223q1.182-13.49,6.513-19.17a17.05,17.05,0,0,1,12.91-5.68h0.947a9.279,9.279,0,0,1,7.935,5.443q2.487,4.97,2.961,16.8v0.237q0,2.13.119,4.734t0.118,5.917v67.215q-0.477,3.787-1.9,4.733a4.8,4.8,0,0,1-2.6.947H180.57a0.673,0.673,0,0,1-.474-0.237v6.154H208.52v-6.154a0.684,0.684,0,0,1-.473.237h-1.185a5.534,5.534,0,0,1-2.842-1.065q-1.66-1.065-1.658-5.8V85.063q0-17.273-7.461-24.969t-20.016-8.165h-0.474Zm89.061,0a25.5,25.5,0,0,0-3.553.237,25.146,25.146,0,0,0-3.317.71,0.209,0.209,0,0,0-.236.237h-0.474a23.548,23.548,0,0,0-8.764,5.207,8.009,8.009,0,0,0-1.895,2.13c-0.474.791-1.029,1.657-1.658,2.6v-9.23h-22.5v5.444h1.658a5.771,5.771,0,0,1,2.961,1.183q1.778,1.187,1.777,5.68v90.408q0,4.737-1.777,5.8a6.149,6.149,0,0,1-2.961,1.065h-1.184a0.673,0.673,0,0,1-.474-0.237v6.154H249.5v-6.154a0.684,0.684,0,0,1-.473.237h-0.948a5.239,5.239,0,0,1-2.961-1.065q-1.542-1.065-1.539-5.8V82.223q1.182-13.49,6.514-19.17A17.047,17.047,0,0,1,263,57.373h0.947a9.279,9.279,0,0,1,7.935,5.443q2.487,4.97,2.961,16.8v0.237q0,2.13.119,4.734t0.118,5.917v67.215q-0.477,3.787-1.895,4.733a4.8,4.8,0,0,1-2.605.947H269.63a0.673,0.673,0,0,1-.474-0.237v6.154h28.425v-6.154a0.688,0.688,0,0,1-.474.237h-1.185a5.534,5.534,0,0,1-2.842-1.065q-1.66-1.065-1.658-5.8V85.063q0-17.273-7.461-24.969t-20.016-8.165h-0.473Zm67.15,2.012a30.268,30.268,0,0,0-9.949,5.917,31.268,31.268,0,0,0-7.343,10.177,34.316,34.316,0,0,0-2.961,14.792v6.982q0,4.615.119,10.3t0.118,11.715q0,6.034.119,11.242t0.118,9.112v5.562a27.551,27.551,0,0,0,3.079,13.135,36.166,36.166,0,0,0,7.817,10.058,32,32,0,0,0,10.659,6.391,34.149,34.149,0,0,0,11.607,2.13,36.012,36.012,0,0,0,13.619-2.722,24.851,24.851,0,0,0,9.12-6.745,24.586,24.586,0,0,0,4.974-10.059,51.046,51.046,0,0,0,1.421-12.188v-3.314h-5.448q0,9.231-2.132,14.91a23.308,23.308,0,0,1-5.329,8.757,18.229,18.229,0,0,1-7.58,4.379,37.954,37.954,0,0,1-8.882,1.538A15.037,15.037,0,0,1,331.1,159.97Q326,153.7,326,139.025V114.647h47.136V84.59a36.106,36.106,0,0,0-2.724-14.674,29.433,29.433,0,0,0-7.224-10.177,28.852,28.852,0,0,0-10.185-5.917,35.157,35.157,0,0,0-11.133-1.893A32.932,32.932,0,0,0,330.622,53.941Zm-4.383,54.553V89.8q0-17.983,3.909-24.614a12.558,12.558,0,0,1,11.488-6.627,14.11,14.11,0,0,1,6.395,1.42,11.713,11.713,0,0,1,4.856,5.088,34.2,34.2,0,0,1,3.2,9.7A80.015,80.015,0,0,1,357.269,89.8v18.7h-31.03Zm116.535-52.3a19.53,19.53,0,0,0-12.791-4.97,24.961,24.961,0,0,0-7.462.947,19.952,19.952,0,0,0-5.211,2.485,16.165,16.165,0,0,0-3.908,3.787q-1.66,2.252-3.316,4.852v-9.7H387.347V59.5a4.289,4.289,0,0,1,2.842,0,6.039,6.039,0,0,1,2.369,2.012,7.994,7.994,0,0,1,1.184,4.852v90.172a7.977,7.977,0,0,1-1.184,4.852,4.256,4.256,0,0,1-2.369,1.775q-0.95.71-2.842,0v6.154h28.661v-6.154a3.863,3.863,0,0,1-4.975-1.775,9.523,9.523,0,0,1-.947-4.852V77.49q1.893-11.832,7.343-16.567a16.775,16.775,0,0,1,12.554-4.26,8.729,8.729,0,0,1,4.263,1.183q3.315,1.659,2.843,3.905a5.408,5.408,0,0,1-2.132,3.432l-0.355.355a2.657,2.657,0,0,1-.593.355,10.208,10.208,0,0,0-4.5,8.993,11.153,11.153,0,0,0,3.2,8.047,11.015,11.015,0,0,0,15.633.118,11.908,11.908,0,0,0,3.435-8.165,6.021,6.021,0,0,0,0-2.367,14.1,14.1,0,0,1-.237-1.893Q448.7,61.163,442.774,56.189Z"/>
  <path id="_" data-name="&amp;" class="cls-2" d="M242.6,344.161q32.951,0,53.482-31.2l-2.415-2.758q-10.008,12.759-19.754,18.1t-23.549,5.344q-17.946,0-35.54-11.032l-0.863-.517A116.515,116.515,0,0,0,231.3,306.41a121.523,121.523,0,0,0,14.233-18.617,95.538,95.538,0,0,0,8.971-18.876,56.615,56.615,0,0,0,3.278-18.358,34.764,34.764,0,0,0-3.882-16.377,29.059,29.059,0,0,0-10.61-11.549,28.084,28.084,0,0,0-15.009-4.137,35.491,35.491,0,0,0-17.684,4.826,47.989,47.989,0,0,0-15.009,13.618,63.435,63.435,0,0,0-9.748,20l8.971,13.273q11.73-42.232,35.885-42.233a18.675,18.675,0,0,1,14.923,6.809q5.778,6.811,5.78,17.841,0,10.69-5.435,22.841a103.273,103.273,0,0,1-14.923,23.616,113.4,113.4,0,0,1-21.565,20.082,169.253,169.253,0,0,1-40.371-41.2,158.69,158.69,0,0,1-17.856-35.338q-7.335-19.995-8.022-35.51,4.827-2.412,20.185-10.86,14.144-7.927,19.323-11.378,31.224-19.994,31.226-40.854a20.38,20.38,0,0,0-6.814-15.6q-6.818-6.291-17.684-6.292-20.186,0-37.093,20.513-9.315,11.378-15.009,29.219a119.211,119.211,0,0,0-5.693,36.458v1.035l-1.208.689Q74.9,241.6,74.9,283.483q0,18.448,8.885,32.408t25.361,21.548q16.474,7.583,37.7,7.584a109.193,109.193,0,0,0,50.894-12.411l1.38-.69a0.643,0.643,0,0,1,.518-0.344q20.873,12.585,42.958,12.583h0Zm-84.881-8.1q-27.78,0-46.237-17.5t-18.46-43.871q0-35.336,38.646-59.989l0.172,0.862a156.356,156.356,0,0,0,19.323,65.419q16.732,30.083,43.131,47.318a88.954,88.954,0,0,1-36.575,7.757h0Zm-14.665-136.7V194.88a92.689,92.689,0,0,1,5.693-32.667q5.694-15.255,15.269-24.305t20.616-9.05q7.59,0,12.163,4.137t4.572,11.549q0,8.622-5.693,18.186a57.061,57.061,0,0,1-15.182,16.635q-12.6,9.826-37.265,22.927Z"/>
  <path id="a_Show" data-name="a Show" class="cls-1" d="M397.049,330.856a7.08,7.08,0,0,1-2.2,4.755,7.2,7.2,0,0,1-5.125,1.829,6.323,6.323,0,0,1-4.637-1.951,6.907,6.907,0,0,1-1.952-5.121c0-.324-0.042-0.933-0.122-1.829s-0.122-2.8-.122-5.73v-71.69a26.635,26.635,0,0,0-3.051-12.924,35.545,35.545,0,0,0-7.565-9.631,33.028,33.028,0,0,0-10.25-6.218,32.189,32.189,0,0,0-11.592-2.195,33.066,33.066,0,0,0-14.277,3.048,27.81,27.81,0,0,0-11.1,9.876,29.162,29.162,0,0,0-3.294,8.168,36.626,36.626,0,0,0-1.1,8.657,10.6,10.6,0,0,0,3.417,7.925,11.515,11.515,0,0,0,8.3,3.292A11.245,11.245,0,0,0,343.6,249.9a11.686,11.686,0,0,0-2.075-6.706,11.122,11.122,0,0,0-5.247-4.267,2.283,2.283,0,0,0-.61-0.244,2.054,2.054,0,0,1-.61-0.244,4.4,4.4,0,0,1-1.952-1.463,3.645,3.645,0,0,1-.61-2.56A6.423,6.423,0,0,1,334.085,231a12.58,12.58,0,0,1,4.637-3.292,25.987,25.987,0,0,1,11.714-2.438,13.178,13.178,0,0,1,4.149.731,19.567,19.567,0,0,1,8.907,5.121,16.844,16.844,0,0,1,5,9.266,23.215,23.215,0,0,1,.732,6.1,11.151,11.151,0,0,1-1.464,5.852,12.5,12.5,0,0,1-2.928,4.633,27.175,27.175,0,0,1-4.149,3.414q-1.71,1.222-3.173,2.439a33.4,33.4,0,0,1-2.928,2.194q-2.688,1.955-5.979,4.146t-7.688,4.876l-0.732.366q-0.246.126-.732,0.366a9.64,9.64,0,0,0-1.83,1.341,6.037,6.037,0,0,1-1.587,1.1,43.879,43.879,0,0,0-7.687,6.95,51.164,51.164,0,0,0-6.1,8.534,38.754,38.754,0,0,0-3.783,9.023A42.506,42.506,0,0,0,317,310.373v0.244a11.1,11.1,0,0,0,.244,2.926,37.689,37.689,0,0,0,3.172,13.411,27.97,27.97,0,0,0,6.834,9.51,23.807,23.807,0,0,0,17.083,7.072,24.879,24.879,0,0,0,14.276-4.389,27.7,27.7,0,0,0,9.64-10.973,19.185,19.185,0,0,0,2.2,5.608,13.97,13.97,0,0,0,6.345,7.072,20.587,20.587,0,0,0,10.494,2.682,13.8,13.8,0,0,0,6.467-1.463,18.863,18.863,0,0,0,4.637-3.292,13.918,13.918,0,0,0,2.806-3.9,9.423,9.423,0,0,0,.977-4.023h-5.125Zm-37.583-.975a13.233,13.233,0,0,1-7.078,1.95q-8.785,0-13.544-5.242t-5-14.509v-3.658a41.258,41.258,0,0,1,2.44-11.7,38.731,38.731,0,0,1,5.369-9.632,56.4,56.4,0,0,1,8.42-8.778q5-4.264,12.08-9.388a25.342,25.342,0,0,1,2.319-2.073,22.011,22.011,0,0,0,2.074-1.829v45.111q0,3.418-.366,7.316a17.949,17.949,0,0,1-2.319,7.315,11.87,11.87,0,0,1-4.392,5.121h0ZM472.944,226.613a79.892,79.892,0,0,1-9.4-15.24,42.721,42.721,0,0,1-4.149-16.46q-0.366-8.412,5.491-16.7a19.663,19.663,0,0,1,6.956-5.121A21.767,21.767,0,0,1,481,171.138q8.785,0,13.179,6.1a37.228,37.228,0,0,1,6.1,13.412,63.377,63.377,0,0,1,1.708,19.264h6.833V167.237h-6.833q-0.492,5.121-1.952,5.364t-4.271-1.463q-2.808-1.7-6.589-4.023a15.831,15.831,0,0,0-8.42-2.317q-13.911,0-20.866,6.462t-10.128,18.167a76.755,76.755,0,0,0-1.708,16.459,70.184,70.184,0,0,0,2.441,17.923,99.985,99.985,0,0,0,7.443,19.263,105.554,105.554,0,0,0,13.544,20.239q4.394,5.853,10.738,14.021A110.212,110.212,0,0,1,493.2,294.523a51.976,51.976,0,0,1,5.614,18.532,24.943,24.943,0,0,1-5.125,17.8,20.453,20.453,0,0,1-7.078,5.608,15.791,15.791,0,0,1-8.053,1.951,21.012,21.012,0,0,1-9.03-2.195,20.155,20.155,0,0,1-6.1-4.876,24.87,24.87,0,0,1-3.9-6.462,57.041,57.041,0,0,1-2.44-7.194,64.907,64.907,0,0,1-1.342-9.144,47.7,47.7,0,0,1,.366-10.119h-6.59v43.4h6.346q0.24-4.875,2.074-5.121t5,1.341q3.168,1.59,7.2,3.658a17.286,17.286,0,0,0,8.908,1.829,32.341,32.341,0,0,0,12.934-2.8,27.885,27.885,0,0,0,9.03-6.706,36.191,36.191,0,0,0,5.979-9.388,71.383,71.383,0,0,0,3.783-10.851q3.168-17.311-4.271-35.236t-23.794-38.893Q478.553,233.807,472.944,226.613Zm48.831-59.62v5.852h0.488a1.062,1.062,0,0,0,.489-0.122,1.7,1.7,0,0,1,.732-0.122,4.928,4.928,0,0,1,2.928,1.463q1.705,1.464,1.709,6.1V328.174q0,4.635-1.709,5.852a5.362,5.362,0,0,1-2.928,1.219h-1.221a0.694,0.694,0,0,1-.488-0.244v6.34H551.3V335a0.7,0.7,0,0,1-.488.244h-0.976a5.048,5.048,0,0,1-3.051-1.219q-1.59-1.218-1.586-5.852V251.363q1.218-14.139,6.833-19.873a17.869,17.869,0,0,1,13.178-5.731h0.733q6.1,0.492,8.541,5.609t2.929,17.556v0.244h0.244v17.557q0,7.075.122,15.85t0.122,17.313v29.5q-0.492,3.9-1.953,4.877a5.243,5.243,0,0,1-2.928.975h-0.976a0.69,0.69,0,0,1-.488-0.244v6.34H601.09V335a0.7,0.7,0,0,1-.488.244h-1.22a5.345,5.345,0,0,1-2.929-1.219q-1.71-1.218-1.708-5.852V254.533a45.173,45.173,0,0,0-2.319-15.24,30.135,30.135,0,0,0-6.223-10.608,25.717,25.717,0,0,0-8.907-6.218,26.313,26.313,0,0,0-10.128-2.072h-0.732a26.409,26.409,0,0,0-9.274,1.463,25.284,25.284,0,0,0-6.467,3.414,18.239,18.239,0,0,0-3.783,3.657q-1.224,1.71-1.708,2.439V166.993H521.775Zm110.161,55.353a29.787,29.787,0,0,0-10.738,6.218,32.915,32.915,0,0,0-7.81,10.851,37.446,37.446,0,0,0-3.05,15.849v54.865a30.384,30.384,0,0,0,3.172,14.021,38.5,38.5,0,0,0,7.81,10.607,30.581,30.581,0,0,0,10.616,6.584,34.171,34.171,0,0,0,11.836,2.195,27.963,27.963,0,0,0,11.714-2.682,40.318,40.318,0,0,0,10.616-7.072,37.949,37.949,0,0,0,7.931-10.485,28.114,28.114,0,0,0,3.173-13.168V254.777a36.855,36.855,0,0,0-3.051-15.606,30.865,30.865,0,0,0-7.931-10.729,32.267,32.267,0,0,0-10.738-6.1,36.9,36.9,0,0,0-11.714-1.951A38,38,0,0,0,631.936,222.346Zm27.943,81.2q0,18.78-4.271,26.579t-12.08,7.8q-7.814,0-11.959-7.8t-4.148-26.579v-43.4q0-18.774,4.148-25.969t11.959-7.193a14.887,14.887,0,0,1,6.955,1.585,12.558,12.558,0,0,1,5.125,5.486,34.883,34.883,0,0,1,3.172,10.363,95.654,95.654,0,0,1,1.1,15.728v43.4Zm117.115-81.2v5.608a6.95,6.95,0,0,1,3.661,0,4.366,4.366,0,0,1,1.586,1.1q0.852,0.858.366,3.536-1.71,7.808-3.05,14.143t-3.173,14.631q-1.83,8.292-3.783,16.947t-4.026,17.434q-2.076,8.78-4.027,16.094-1.71-7.316-3.539-16.094t-3.538-17.434q-1.711-8.654-3.295-16.947t-2.929-14.631q-1.344-6.338-2.318-14.143-0.732-2.68.122-3.536a3.967,3.967,0,0,1,1.83-1.1,6.1,6.1,0,0,1,3.417,0v-5.608H723.06v5.608a7.936,7.936,0,0,1,3.905,0,8.709,8.709,0,0,1,2.929,1.1q1.464,0.858,1.952,3.536a76.253,76.253,0,0,1,1.83,8.169q1.584,7.926,4.271,20.6-2.688,12.435-5.735,25.847t-5.979,24.628q-1.71-7.316-3.417-16.094t-3.538-17.434q-1.832-8.654-3.417-16.947t-2.807-14.631q-1.224-6.338-2.684-14.143-0.492-2.68.366-3.536a3.967,3.967,0,0,1,1.83-1.1,6.95,6.95,0,0,1,3.661,0v-5.608H684.5v5.608a8.91,8.91,0,0,1,4.149,0,8.7,8.7,0,0,1,2.928,1.1q1.466,0.858,1.709,3.536,2.2,9.51,3.66,17.191t3.539,17.557q2.07,9.875,4.271,19.873,4.88,23.9,11.226,54.133h10.982q2.2-9.75,4.637-20.239,2.2-9.018,4.759-20.239t5-22.433q2.682,11.219,4.881,22.433t3.66,20.239q2.438,10.488,4.393,20.239H765.28l12.69-54.133q2.683-10,4.881-19.873t4.027-17.557q1.83-7.681,3.783-17.191a5.57,5.57,0,0,1,2.2-3.536,8.7,8.7,0,0,1,2.929-1.1,8.965,8.965,0,0,1,4.148,0v-5.608h-22.94Z"/>
</svg>
